<svg width="16" height="16" viewBox="0 0 16 16" fill="none" xmlns="http://www.w3.org/2000/svg">
<path d="M16 8C16 12.4183 12.4183 16 8 16C3.58172 16 0 12.4183 0 8C0 3.58172 3.58172 0 8 0C12.4183 0 16 3.58172 16 8Z" fill="#F0EAFB"/>
<path fill-rule="evenodd" clip-rule="evenodd" d="M12.3891 4.99214C12.6495 5.25249 12.6495 5.6746 12.3891 5.93495L7.31697 11.0071C7.05662 11.2675 6.63451 11.2675 6.37416 11.0071L3.61128 8.24427C3.35093 7.98393 3.35093 7.56182 3.61128 7.30146C3.87162 7.04111 4.29373 7.04111 4.55408 7.30146L6.84556 9.59291L11.4463 4.99214C11.7067 4.73179 12.1288 4.73179 12.3891 4.99214Z" fill="#5F27CD"/>
</svg>
